<svg width="41" height="63" viewBox="0 0 41 63" fill="none" xmlns="http://www.w3.org/2000/svg">
<path d="M20.6424 59.9821C19.9195 59.0354 19.2523 58.2 18.585 57.295C16.7361 54.6219 14.8317 51.9905 13.0245 49.2477C10.7973 45.7626 8.82733 42.1191 7.13041 38.3463C5.46572 34.7755 4.17077 31.0433 3.26587 27.2082C2.56095 24.261 2.3032 21.2243 2.5013 18.2002C2.74468 15.4286 3.63513 12.7531 5.10083 10.3896C6.45799 8.17367 8.27346 6.2747 10.425 4.82055C12.5211 3.41409 14.8893 2.46534 17.3756 2.03602C20.4653 1.46357 23.6504 1.70342 26.6199 2.73215C28.5286 3.38199 30.311 4.35697 31.8885 5.61414C34.1039 7.35722 35.8838 9.59276 37.0875 12.1439C38.5217 15.312 39.0833 18.8068 38.714 22.2656C38.3957 25.8162 37.6248 29.3113 36.4203 32.6659C35.2953 35.9502 33.9004 39.1354 32.2499 42.1889C30.7903 44.8482 29.3306 47.5213 27.7042 50.0831C25.8831 52.8676 23.8814 55.6521 21.9352 58.3392C21.5599 58.8265 21.115 59.3556 20.6424 59.9821Z" stroke="white" stroke-width="3" stroke-miterlimit="10"/>
<circle cx="21.0834" cy="21.252" r="5.5" stroke="white" stroke-width="3"/>
</svg>
